<?xml version="1.0" standalone="no"?>
<!DOCTYPE svg PUBLIC "-//W3C//DTD SVG 20010904//EN"
 "http://www.w3.org/TR/2001/REC-SVG-20010904/DTD/svg10.dtd">
<svg version="1.0" xmlns="http://www.w3.org/2000/svg"
 width="502.000000pt" height="439.000000pt" viewBox="0 0 502.000000 439.000000"
 preserveAspectRatio="xMidYMid meet">

<g transform="translate(0.000000,439.000000) scale(0.100000,-0.100000)"
fill="#000000" stroke="none">
<path d="M1160 3552 c0 -29 -21 -42 -69 -42 -41 0 -49 -5 -104 -60 -43 -43
-58 -65 -54 -79 7 -28 -28 -75 -60 -81 -41 -7 -115 -138 -111 -195 3 -53 -8
-85 -41 -115 -43 -38 -90 -237 -61 -255 18 -11 11 -81 -12 -110 -16 -20 -22
-45 -26 -102 -7 -103 15 -253 39 -276 17 -16 19 -30 17 -105 -3 -104 32 -237
65 -248 30 -10 57 -64 51 -104 -4 -30 2 -47 45 -112 43 -67 54 -78 78 -78 35
0 63 -31 63 -68 0 -30 27 -61 93 -104 35 -23 44 -25 135 -21 l97 4 -25 -22
-25 -22 58 6 c45 4 57 3 57 -9 0 -8 -9 -14 -21 -14 -12 0 -17 -4 -13 -11 8
-14 59 -5 109 20 30 14 34 19 20 25 -9 3 -21 4 -26 0 -5 -3 -9 1 -9 8 0 11 17
14 68 14 59 -1 72 3 109 29 24 17 43 38 43 47 0 20 46 58 71 58 26 0 128 127
122 151 -7 24 21 67 51 81 15 6 37 38 60 87 32 69 35 80 24 108 -14 36 3 87
34 104 25 13 35 41 48 137 10 74 9 83 -10 114 -26 42 -25 47 6 94 25 37 26 43
22 137 -4 80 -9 102 -25 120 -30 33 -37 74 -17 104 15 23 15 30 0 77 -8 28
-20 70 -26 93 -7 27 -21 49 -39 62 -35 25 -55 71 -48 108 9 48 -78 183 -119
183 -27 0 -64 47 -64 83 0 32 -70 98 -97 91 -21 -6 -73 31 -73 51 0 7 -12 23
-26 34 -25 19 -40 21 -205 21 -166 0 -179 -1 -179 -18z m287 -369 c133 -62
250 -242 299 -458 9 -38 18 -138 21 -220 5 -127 2 -167 -16 -260 -12 -60 -26
-114 -31 -119 -10 -10 -54 34 -182 183 -55 64 -55 65 -42 98 21 49 18 131 -7
178 -29 56 -55 81 -105 104 -48 23 -158 29 -169 10 -4 -6 14 -37 39 -70 25
-32 46 -63 46 -67 0 -4 -19 -23 -42 -41 l-43 -33 -30 38 c-16 21 -42 51 -56
68 l-27 30 -17 -39 c-28 -68 -30 -125 -6 -180 27 -61 44 -80 99 -112 34 -20
58 -26 108 -27 l64 -1 124 -190 c97 -147 122 -193 115 -206 -13 -25 -88 -88
-130 -109 -117 -61 -257 -32 -363 74 -160 159 -246 487 -205 783 11 83 44 224
59 251 5 9 19 40 31 67 55 120 149 219 244 258 64 26 154 22 222 -10z m-69
-527 c19 -12 14 -33 -13 -50 -13 -9 -26 -16 -29 -16 -11 0 -57 70 -52 78 6 10
73 1 94 -12z m81 -91 c19 -40 17 -113 -4 -158 -20 -43 -31 -25 134 -211 53
-59 100 -115 104 -123 10 -17 -49 -143 -67 -143 -7 0 -68 85 -136 188 l-123
189 -71 -1 c-88 0 -127 19 -167 82 -23 36 -29 57 -29 99 0 69 16 69 65 3 20
-27 39 -50 41 -50 7 0 154 111 184 138 32 28 51 25 69 -13z"/>
<path d="M1335 2449 c-22 -17 -47 -34 -55 -39 -12 -7 -12 -11 -1 -24 11 -13
19 -11 67 26 43 32 52 43 43 54 -14 17 -6 19 -54 -17z"/>
<path d="M1615 3560 c11 -5 35 -9 54 -9 33 -1 142 -25 171 -39 8 -3 -16 -9
-55 -12 l-69 -5 59 -48 c33 -26 78 -52 100 -58 77 -20 187 -64 186 -74 0 -5
-31 -11 -67 -13 -76 -3 -76 0 -10 -94 56 -80 59 -83 160 -133 93 -47 105 -70
36 -71 -67 -1 -70 -2 -70 -26 0 -29 47 -177 65 -204 7 -11 41 -38 74 -59 75
-48 78 -65 12 -65 -71 0 -73 -6 -63 -150 9 -120 10 -123 38 -144 16 -11 43
-34 59 -50 l30 -30 -30 -7 c-16 -5 -39 -6 -51 -3 -43 11 -56 -9 -80 -112 -13
-55 -23 -107 -23 -117 -1 -10 19 -37 44 -60 62 -58 59 -67 -20 -67 l-65 0 -30
-47 c-17 -26 -30 -52 -30 -59 0 -6 -6 -17 -14 -23 -8 -7 -18 -26 -21 -43 -6
-26 -2 -36 30 -68 21 -21 34 -43 31 -49 -4 -6 -38 -11 -79 -11 l-73 0 -62 -63
c-60 -60 -61 -63 -46 -85 22 -32 10 -42 -49 -42 -69 0 -95 -16 -41 -26 21 -4
66 -20 100 -35 34 -16 64 -29 68 -29 9 0 91 -35 129 -55 16 -8 34 -15 40 -15
7 0 23 -6 37 -13 14 -7 54 -24 90 -36 36 -13 79 -30 95 -36 17 -7 64 -25 105
-40 41 -15 118 -43 170 -62 52 -19 113 -41 135 -49 22 -7 112 -38 200 -69 88
-31 221 -76 295 -101 74 -25 144 -48 155 -53 11 -5 72 -24 135 -44 63 -20 159
-50 212 -67 54 -18 105 -30 114 -28 10 2 -79 34 -197 72 -188 61 -476 157
-739 246 -47 15 -130 45 -185 65 -55 20 -118 43 -140 50 -22 8 -65 23 -95 35
-30 12 -73 27 -95 34 -22 7 -51 18 -65 24 -14 6 -68 27 -120 47 -52 20 -126
50 -165 65 -38 16 -97 40 -130 53 -32 14 -61 29 -62 34 -2 6 60 8 154 5 166
-4 283 4 283 18 0 5 -22 6 -50 3 -34 -4 -50 -2 -50 6 0 6 7 11 16 11 8 0 12 5
9 10 -4 7 -24 8 -51 4 -27 -4 -44 -2 -44 4 0 11 104 27 119 18 5 -3 22 1 37 9
16 8 39 15 50 15 23 0 94 71 94 94 0 19 -22 26 -85 26 -56 0 -85 7 -85 20 0 8
127 53 185 64 62 13 92 38 120 97 15 31 25 64 22 71 -3 9 -33 19 -74 27 -90
16 -105 25 -75 49 12 9 43 26 70 36 141 56 148 62 160 109 6 24 14 69 18 100
7 63 12 59 -91 72 -119 15 -118 24 6 90 103 54 109 63 109 166 0 81 -11 109
-44 109 -13 0 -36 4 -52 9 -16 5 -46 12 -66 16 -21 3 -38 11 -38 18 0 7 37 37
81 67 l81 55 -5 61 c-3 34 -13 79 -22 101 l-16 39 -96 12 c-53 7 -99 14 -101
17 -9 9 17 30 73 60 l57 30 -5 42 c-2 23 -18 63 -34 90 l-30 48 -94 2 c-160 5
-174 17 -84 77 33 21 55 43 55 54 0 10 -15 32 -33 50 l-33 32 -127 0 c-70 0
-127 4 -127 9 0 5 20 17 45 28 25 10 45 21 45 26 0 4 -109 7 -242 6 -145 0
-235 -4 -223 -9z m422 -2127 c5 -15 -21 -23 -38 -12 -12 8 -12 10 1 19 17 11
32 8 37 -7z"/>
<path d="M1612 1380 c-17 -18 -19 -27 -10 -37 6 -8 18 -13 27 -11 9 1 28 -6
43 -16 32 -21 48 -14 48 20 0 20 -5 24 -29 24 -18 0 -34 8 -43 22 l-14 21 -22
-23z"/>
<path d="M2245 1360 c-32 -5 -36 -8 -20 -14 11 -4 32 -14 46 -22 19 -10 45
-12 95 -7 89 7 121 25 40 21 -39 -2 -61 1 -63 9 -2 6 6 13 19 16 38 7 -74 5
-117 -3z"/>
<path d="M2070 1341 l-35 -7 45 -11 c61 -16 157 -27 116 -13 -16 5 -32 13 -35
18 -9 14 -52 20 -91 13z"/>
<path d="M1535 1320 c-3 -5 -24 -15 -45 -21 -49 -15 -57 -45 -10 -35 17 3 44
9 60 12 38 8 39 -9 3 -26 l-28 -12 23 -9 c18 -7 37 -2 78 17 54 26 63 44 20
44 -13 0 -31 9 -41 20 -19 21 -50 26 -60 10z"/>
<path d="M1802 1286 c-12 -26 -1 -36 39 -36 10 0 28 -9 39 -20 30 -30 50 -26
50 10 0 30 -1 31 -51 34 -8 1 -23 9 -33 19 -23 23 -31 22 -44 -7z"/>
<path d="M2485 1280 c-70 -16 -75 -18 -38 -19 29 -1 45 -6 52 -18 8 -15 22
-18 81 -16 75 3 141 25 103 35 -11 3 -37 -1 -58 -8 -46 -15 -63 -9 -40 16 15
16 15 18 0 24 -9 3 -17 5 -18 5 -1 -1 -38 -9 -82 -19z"/>
<path d="M1385 1260 c3 -5 14 -10 23 -10 15 0 15 2 2 10 -20 13 -33 13 -25 0z"/>
<path d="M2230 1260 c19 -5 49 -16 65 -24 20 -11 53 -15 100 -14 39 1 55 3 36
5 -19 3 -46 13 -59 24 -20 15 -40 19 -101 18 -63 -1 -70 -2 -41 -9z"/>
<path d="M1710 1213 c-25 -13 -46 -27 -48 -32 -6 -19 40 -22 74 -6 33 15 54
14 54 -5 0 -5 -9 -12 -20 -15 -26 -8 -26 -22 0 -30 26 -8 115 35 115 55 0 9
-11 16 -30 18 -16 2 -40 12 -53 23 -30 23 -35 23 -92 -8z"/>
<path d="M1470 1220 c8 -5 20 -10 25 -10 6 0 3 5 -5 10 -8 5 -19 10 -25 10 -5
0 -3 -5 5 -10z"/>
<path d="M2026 1194 c-9 -32 -7 -34 40 -41 22 -3 44 -11 50 -19 5 -7 22 -16
37 -19 23 -6 27 -4 27 13 0 25 -48 65 -68 57 -7 -3 -25 4 -39 15 -33 26 -40
25 -47 -6z"/>
<path d="M2737 1198 c-59 -11 -73 -30 -26 -36 13 -2 38 -10 56 -18 38 -17 71
-17 143 0 65 16 50 28 -28 24 -52 -3 -73 12 -30 23 20 5 19 6 -11 12 -18 4
-36 6 -40 6 -3 -1 -32 -6 -64 -11z"/>
<path d="M1607 1159 c7 -7 15 -10 18 -7 3 3 -2 9 -12 12 -14 6 -15 5 -6 -5z"/>
<path d="M2490 1163 c19 -3 42 -11 51 -19 11 -10 47 -16 105 -19 74 -4 83 -3
54 6 -19 6 -47 17 -62 25 -17 9 -53 13 -105 12 -43 0 -62 -3 -43 -5z"/>
<path d="M1972 1127 c-7 -8 -26 -20 -42 -27 -36 -15 -38 -23 -7 -37 17 -8 32
-7 56 3 18 8 40 14 47 14 22 0 16 -28 -7 -35 -24 -8 -15 -21 21 -30 28 -6 110
40 110 62 0 7 -17 15 -37 19 -21 4 -45 13 -54 20 -25 22 -73 28 -87 11z"/>
<path d="M1690 1120 c20 -13 33 -13 25 0 -3 6 -14 10 -23 10 -15 0 -15 -2 -2
-10z"/>
<path d="M2280 1096 c0 -29 4 -36 30 -45 17 -5 38 -7 47 -4 9 4 21 -1 28 -10
12 -17 65 -41 72 -33 3 2 2 14 -2 26 -9 28 -61 59 -87 52 -12 -3 -26 1 -32 10
-6 8 -21 20 -33 27 -22 11 -23 10 -23 -23z"/>
<path d="M3158 1123 c7 -3 16 -2 19 1 4 3 -2 6 -13 5 -11 0 -14 -3 -6 -6z"/>
<path d="M3035 1109 c-16 -4 -43 -11 -59 -14 -23 -5 -27 -8 -15 -16 7 -5 24
-9 36 -9 12 0 38 -10 58 -21 38 -23 75 -22 160 2 l39 11 -29 12 c-24 10 -37
10 -68 -3 -33 -13 -40 -13 -47 0 -7 10 -4 15 12 19 20 5 20 6 -6 18 -30 13
-38 14 -81 1z"/>
<path d="M3238 1093 c7 -3 16 -2 19 1 4 3 -2 6 -13 5 -11 0 -14 -3 -6 -6z"/>
<path d="M2800 1069 c-39 -3 -50 -6 -28 -7 20 -1 38 -7 40 -13 5 -15 80 -28
158 -28 45 0 59 3 45 9 -11 5 -34 9 -52 9 -17 1 -33 5 -35 11 -5 17 -60 25
-128 19z"/>
<path d="M1850 1053 c8 -3 22 -11 30 -17 13 -10 13 -9 1 7 -7 9 -21 17 -30 16
-13 0 -14 -1 -1 -6z"/>
<path d="M2217 1001 l-47 -36 32 -13 c28 -12 37 -12 65 2 18 8 39 13 47 10 18
-7 10 -32 -12 -36 -12 -3 -7 -9 17 -22 38 -20 61 -13 103 31 23 24 23 25 4 39
-11 8 -34 14 -52 14 -18 0 -37 6 -41 13 -4 8 -21 18 -38 24 -27 8 -35 5 -78
-26z"/>
<path d="M3325 1010 c-27 -11 -59 -20 -70 -20 -25 -1 38 -30 65 -30 10 0 38
-9 62 -20 45 -19 45 -19 114 0 38 11 71 20 74 20 3 1 -13 7 -35 15 -25 9 -43
11 -49 5 -13 -13 -76 -13 -76 -1 0 5 8 11 18 13 13 3 10 8 -15 21 -18 9 -33
17 -35 16 -2 0 -25 -9 -53 -19z"/>
<path d="M1964 1006 c11 -9 27 -16 35 -15 14 0 14 1 1 6 -8 3 -24 10 -35 15
-20 9 -20 9 -1 -6z"/>
<path d="M2568 990 c5 -35 51 -65 85 -56 13 3 31 -4 49 -20 30 -24 68 -32 68
-14 0 5 -13 24 -28 41 -21 24 -38 32 -65 33 -19 1 -44 9 -54 18 -10 8 -27 18
-39 22 -18 6 -20 3 -16 -24z"/>
<path d="M3064 963 c22 -2 51 -13 64 -24 21 -16 39 -19 116 -17 50 1 73 3 51
5 -22 2 -46 12 -53 21 -10 14 -32 17 -115 18 -56 1 -84 0 -63 -3z"/>
<path d="M2140 930 c8 -5 22 -9 30 -9 10 0 8 3 -5 9 -27 12 -43 12 -25 0z"/>
<path d="M2521 882 c-31 -33 -32 -37 -15 -49 24 -18 60 -16 95 4 22 13 32 14
41 5 9 -9 8 -16 -5 -30 -16 -18 -15 -20 23 -35 l41 -16 34 35 c19 19 35 39 35
45 0 13 -49 31 -82 31 -15 0 -30 4 -34 9 -7 11 -72 39 -88 38 -6 -1 -26 -18
-45 -37z"/>
<path d="M3628 900 c-37 -12 -45 -19 -36 -28 7 -7 27 -12 45 -12 18 0 47 -9
65 -20 40 -24 98 -26 164 -3 l49 17 -35 14 c-27 11 -42 12 -66 3 -17 -6 -38
-11 -47 -11 -23 0 -22 30 1 31 11 0 7 5 -13 14 -38 18 -68 17 -127 -5z"/>
<path d="M2880 906 c0 -2 7 -20 15 -39 11 -28 23 -38 51 -46 19 -5 42 -7 50
-4 8 3 25 -3 37 -14 26 -23 77 -46 85 -38 8 7 -29 55 -61 78 -14 11 -40 20
-59 19 -18 0 -40 5 -48 13 -15 13 -70 38 -70 31z"/>
<path d="M2255 888 c17 -6 36 -15 43 -21 8 -6 12 -6 12 1 0 10 -53 33 -74 31
-6 0 3 -5 19 -11z"/>
<path d="M3415 860 l-60 -7 48 -1 c29 -1 58 -10 75 -21 32 -23 202 -42 202
-22 0 11 -19 15 -57 12 -13 -1 -35 8 -51 19 -33 24 -76 30 -157 20z"/>
<path d="M2464 805 c15 -8 33 -15 40 -15 16 1 -36 29 -54 30 -8 0 -2 -7 14
-15z"/>
<path d="M3990 793 c-45 -20 -52 -26 -38 -34 10 -5 36 -11 58 -14 23 -2 62
-14 87 -26 41 -20 50 -21 98 -10 66 15 89 36 52 50 -40 16 -51 16 -75 2 -13
-7 -35 -11 -49 -9 -25 3 -26 4 -10 20 23 22 22 25 -10 31 -16 3 -35 8 -43 10
-8 3 -40 -6 -70 -20z"/>
<path d="M2870 763 c-14 -21 -26 -41 -28 -44 -2 -4 18 -15 43 -24 45 -18 46
-18 68 4 13 11 31 21 40 21 18 0 23 -25 7 -35 -25 -15 -5 -25 50 -25 56 0 61
2 70 26 6 14 10 29 10 33 0 9 -69 31 -99 31 -12 0 -34 9 -49 20 -15 11 -40 22
-57 25 -26 5 -33 1 -55 -32z"/>
<path d="M3246 753 c31 -46 66 -66 116 -66 21 0 43 -6 49 -13 6 -8 27 -14 47
-14 l36 0 -29 30 c-31 32 -86 55 -114 47 -10 -2 -38 8 -61 24 -60 40 -75 37
-44 -8z"/>
<path d="M2586 761 c5 -5 25 -12 44 -15 l35 -6 -35 14 c-42 17 -58 20 -44 7z"/>
<path d="M3723 743 c4 -3 32 -10 64 -14 31 -4 59 -13 64 -20 9 -15 90 -28 174
-27 59 0 59 0 30 13 -16 8 -47 14 -67 15 -21 0 -38 4 -38 8 0 17 -70 32 -150
32 -46 0 -80 -3 -77 -7z"/>
<path d="M4389 686 l-34 -21 69 -3 c65 -3 105 3 94 13 -2 3 -25 11 -50 19 -43
12 -48 12 -79 -8z"/>
<path d="M2819 675 c18 -8 38 -15 45 -14 15 1 -46 28 -64 28 -8 0 0 -6 19 -14z"/>
<path d="M3270 670 c0 -6 7 -10 15 -10 8 0 15 2 15 4 0 2 -7 6 -15 10 -8 3
-15 1 -15 -4z"/>
</g>
</svg>
